<svg xmlns="http://www.w3.org/2000/svg" xmlns:xlink="http://www.w3.org/1999/xlink" width="65mm" height="18mm" viewBox="0 0 184.25 51.02"><defs><style>.cls-1{fill:none;}.cls-2{clip-path:url(#clip-path);}.cls-3{fill:url(#linear-gradient);}.cls-4{fill:#fff;}.cls-5{fill:#ffe4e0;}.cls-6{fill:#7d4696;}.cls-7{fill:#8b51a6;}.cls-8{fill:#b084c4;}.cls-9{fill:#ffc9c2;}.cls-10{fill:#ffa496;}.cls-11{fill:#ffb5a8;}.cls-12{fill:#2e0064;}</style><clipPath id="clip-path"><circle class="cls-1" cx="25.51" cy="25.51" r="25.51"/></clipPath><linearGradient id="linear-gradient" x1="25.51" y1="54.17" x2="25.51" y2="3.15" gradientUnits="userSpaceOnUse"><stop offset="0.33" stop-color="#53006e"/><stop offset="1" stop-color="#080059"/></linearGradient></defs><g id="art"><g class="cls-2"><circle class="cls-3" cx="25.51" cy="25.51" r="25.51"/><polygon class="cls-4" points="25.57 34.55 25.46 34.55 25.52 34.45 25.57 34.55"/><polygon class="cls-4" points="25.52 34.45 25.57 34.55 25.46 34.55 25.52 34.45"/><polygon class="cls-5" points="35.56 9.09 36.66 12.16 39.73 13.27 36.66 14.37 35.56 17.44 34.45 14.37 31.39 13.27 34.45 12.16 35.56 9.09"/><polygon class="cls-6" points="-14.88 52.76 8.16 18.55 31.2 52.76 -14.88 52.76"/><polygon class="cls-7" points="-3.69 52.79 23.18 12.88 50.05 52.79 -3.69 52.79"/><polygon class="cls-8" points="17.11 57.9 40.15 23.69 63.18 57.9 17.11 57.9"/><polygon class="cls-9" points="21.91 50.77 40.15 23.69 35.7 45.26 32.4 41.01 21.91 50.77"/><polygon class="cls-10" points="-14.88 52.76 8.16 18.55 2.84 52.24 -14.88 52.76"/><polygon class="cls-11" points="0.15 47.1 23.18 12.88 16.93 33.74 23.7 31.85 18.82 53.66 0.15 47.1"/></g><path fill="currentcolor" class="cls-12" d="M82.53,15.76h-8.2V41.87H70.25V15.76H61.83V12.28H83Z"/><path fill="currentcolor" class="cls-12" d="M95.67,19l-.73,3.86a7.2,7.2,0,0,0-2-.25c-2.83,0-4.46,2-5.41,6.35V41.87h-4V19.24H87l.39,4.59c1.2-3.39,3.31-5.11,6.06-5.11A9.72,9.72,0,0,1,95.67,19Z"/><rect class="cls-12" x="99.76" y="19.24" width="3.95" height="22.64"/><path fill="currentcolor" class="cls-12" d="M129.1,20.27a22.14,22.14,0,0,1-6.62.68c2.67,1.21,4,3.1,4,5.72,0,4.46-3.22,7.69-8.64,7.69a9.22,9.22,0,0,1-2.88-.43,2.73,2.73,0,0,0-1.11,2.1c0,1,.64,1.85,3,1.85h3.61c4.64,0,7.73,2.66,7.73,6.27,0,4.38-3.61,6.87-10.61,6.87-7.39,0-9.71-2.27-9.71-6.87h3.57c0,2.58,1.16,3.78,6.14,3.78s6.62-1.24,6.62-3.52-1.72-3.22-4.56-3.22H116c-4,0-5.84-2-5.84-4.3a4.91,4.91,0,0,1,2.49-4,6.51,6.51,0,0,1-3.83-6.28c0-4.64,3.74-7.9,8.72-7.9,5.63.13,7.69-.82,10.36-2Zm-16.2,6.35c0,3,1.68,5.12,4.77,5.12s4.77-1.89,4.77-5.16-1.63-5-4.86-5C114.54,21.55,112.9,23.66,112.9,26.62Z"/><path fill="currentcolor" class="cls-12" d="M132.91,37.41V10.13l4-.47V37.32c0,1.2.38,1.8,1.42,1.8a3.92,3.92,0,0,0,1.46-.25l1,2.75a6.69,6.69,0,0,1-3.14.77C134.75,42.39,132.91,40.63,132.91,37.41Z"/><path fill="currentcolor" class="cls-12" d="M162.57,39.64l-.91,2.75c-2.27-.26-3.73-1.16-4.42-3.39a7.73,7.73,0,0,1-6.75,3.39c-4.51,0-7.21-2.79-7.21-6.83,0-4.85,3.65-7.48,10-7.48h3.48V26.41c0-3.27-1.59-4.47-4.72-4.47a20.33,20.33,0,0,0-6.1,1.2l-1-2.87a22.17,22.17,0,0,1,7.82-1.55c5.45,0,8,2.79,8,7.52V36.59C160.68,38.57,161.41,39.21,162.57,39.64Zm-5.85-3.74V30.71h-3c-4.17,0-6.27,1.54-6.27,4.63,0,2.67,1.33,4.09,3.91,4.09C153.72,39.43,155.43,38.27,156.72,35.9Z"/><path fill="currentcolor" class="cls-12" d="M176.56,41.87h-4.77L164,19.24h4.29l5.93,19.11,5.89-19.11h4.16Z"/><polygon class="cls-12" points="101.71 7.88 102.82 10.95 105.88 12.05 102.82 13.16 101.71 16.22 100.61 13.16 97.54 12.05 100.61 10.95 101.71 7.88"/></g></svg>